<?xml version="1.0" encoding="utf-8"?>
<!-- Generator: Adobe Illustrator 21.0.2, SVG Export Plug-In . SVG Version: 6.00 Build 0)  -->
<svg version="1.1" id="Layer_1" xmlns="http://www.w3.org/2000/svg" xmlns:xlink="http://www.w3.org/1999/xlink" x="0px" y="0px"
	 viewBox="0 0 158.8 49.7" style="enable-background:new 0 0 158.8 49.7;" xml:space="preserve">
<g>
	<path d="M21.9,27.4l-7.7-16.8L6.4,27.4H0L12.9,0.5l2.3-0.4l13.1,27.3H21.9z"/>
	<path d="M53.8,28.6l-8.9-11.4l-8.5,10.9l-2.5-0.4V0.6h21.8l0.5,2.2l-7.8,9.9l9.3,11.9L53.8,28.6z M39.5,6.2v9.9l7.7-9.9H39.5z"/>
	<path d="M76.5,27.9c-7.7,0-14-6.3-14-13.9c0-7.7,6.3-13.9,14-13.9s14,6.2,14,13.9C90.6,21.7,84.2,27.9,76.5,27.9z M76.5,5.7
		c-4.6,0-8.1,3.7-8.1,8.3c0,4.6,3.6,8.3,8.1,8.3c4.6,0,8.2-3.7,8.2-8.3S81.1,5.7,76.5,5.7z"/>
	<path d="M97.9,27.4V0.6h5.8v26.8H97.9L97.9,27.4z M108.5,27.4V0.6h5.8v26.8H108.5L108.5,27.4z M119.1,27.4V0.6h5.8v26.8H119.1
		L119.1,27.4z"/>
	<path d="M152.4,27.4l-7.7-16.8l-7.8,16.8h-6.4l12.9-26.9l2.3-0.4l13.1,27.3H152.4z"/>
</g>
<g>
	<path d="M33.8,40.1c1.9,0,3.9,1,4.3,3.3h-1.9c-0.4-1.1-1.3-1.5-2.4-1.5c-1.7,0-2.8,1.2-2.8,3c0,1.6,1.1,2.9,2.8,2.9
		c1.2,0,2.1-0.5,2.4-1.7h1.9c-0.4,2.5-2.4,3.5-4.4,3.5c-2.5,0-4.8-1.7-4.8-4.8C29,41.8,31.3,40.1,33.8,40.1z"/>
	<path d="M45.1,49.7c-2.5,0-4.8-1.7-4.8-4.9s2.3-4.9,4.8-4.9c2.4,0,4.8,1.7,4.8,4.9C49.9,47.7,47.9,49.7,45.1,49.7z M45.1,47.9
		c1.5,0,2.8-1,2.8-3s-1.3-3-2.8-3s-2.8,1-2.8,3C42.3,46.9,43.6,47.9,45.1,47.9z"/>
	<path d="M58.1,46.3h-3.4v3.3h-2v-9.4h5.8V42h-3.8v2.5h3.4V46.3L58.1,46.3z"/>
	<path d="M66.5,46.3h-3.4v3.3h-2v-9.4h5.8V42h-3.8v2.5h3.4V46.3L66.5,46.3z"/>
	<path d="M75.3,41.9h-3.7v1.9h3.5v1.8h-3.5v2.1h3.8v1.8h-5.9v-9.3h5.8L75.3,41.9L75.3,41.9z"/>
	<path d="M84.2,41.9h-3.7v1.9H84v1.8h-3.5v2.1h3.8v1.8h-5.9v-9.3h5.8V41.9L84.2,41.9z"/>
	<path d="M91.7,43.9h1.8v-1.7h1.6v1.7h1.8v1.5h-1.8v1.7h-1.6v-1.7h-1.8V43.9z"/>
	<path d="M103.7,41.9v-1.7h7V42h-2.5v7.6h-1.9V42h-2.6V41.9z"/>
	<path d="M118.8,41.9h-3.7v1.9h3.5v1.8h-3.5v2.1h3.8v1.8H113v-9.3h5.8L118.8,41.9L118.8,41.9z"/>
	<path d="M123.8,48l-0.7,1.6H121v-0.3l4.3-9.2h0.9l4.3,9.2v0.3h-2.1l-0.7-1.6H123.8z M124.4,46.3h2.6l-1.3-3.1L124.4,46.3z"/>
</g>
</svg>
