<?xml version="1.0" encoding="utf-8"?>
<!-- Generator: Adobe Illustrator 21.0.2, SVG Export Plug-In . SVG Version: 6.00 Build 0)  -->
<svg version="1.1" id="Layer_1" xmlns="http://www.w3.org/2000/svg" xmlns:xlink="http://www.w3.org/1999/xlink" x="0px" y="0px"
	 viewBox="0 0 16 16" style="enable-background:new 0 0 16 16;" xml:space="preserve">
<style type="text/css">
	.st0{opacity:0.5;}
</style>
<path class="st0" d="M8,0.7c-2,0-2.2,0-3,0c-0.8,0-1.3,0.2-1.8,0.3C2.7,1.2,2.3,1.5,1.9,1.9C1.5,2.3,1.2,2.7,1.1,3.2
	C0.9,3.7,0.8,4.2,0.7,5c0,0.8,0,1,0,3s0,2.2,0,3c0,0.8,0.2,1.3,0.3,1.8c0.2,0.5,0.4,0.9,0.8,1.3c0.4,0.4,0.8,0.7,1.3,0.8
	c0.5,0.2,1,0.3,1.8,0.3c0.8,0,1,0,3,0s2.2,0,3,0c0.8,0,1.3-0.2,1.8-0.3c0.5-0.2,0.9-0.4,1.3-0.8c0.4-0.4,0.7-0.8,0.8-1.3
	c0.2-0.5,0.3-1,0.3-1.8c0-0.8,0-1,0-3s0-2.2,0-3c0-0.8-0.2-1.3-0.3-1.8c-0.2-0.5-0.4-0.9-0.8-1.3c-0.4-0.4-0.8-0.7-1.3-0.8
	c-0.5-0.2-1-0.3-1.8-0.3C10.2,0.7,10,0.7,8,0.7z M8,2c2,0,2.2,0,3,0c0.7,0,1.1,0.2,1.4,0.3c0.3,0.1,0.6,0.3,0.8,0.5s0.4,0.5,0.5,0.8
	C13.8,3.9,13.9,4.3,14,5c0,0.8,0,1,0,3s0,2.2,0,3c0,0.7-0.2,1.1-0.3,1.4c-0.1,0.3-0.3,0.6-0.5,0.8c-0.3,0.3-0.5,0.4-0.8,0.5
	c-0.3,0.1-0.7,0.2-1.4,0.3c-0.8,0-1,0-3,0s-2.2,0-3,0c-0.7,0-1.1-0.2-1.4-0.3c-0.3-0.1-0.6-0.3-0.8-0.5c-0.3-0.3-0.4-0.5-0.5-0.8
	C2.2,12.1,2,11.7,2,10.9c0-0.8,0-1,0-3s0-2.2,0-3c0-0.7,0.2-1.1,0.3-1.4c0.1-0.3,0.3-0.6,0.5-0.8s0.5-0.4,0.8-0.5C3.9,2.2,4.3,2,5,2
	C5.8,2,6,2,8,2L8,2z M8,4.2C5.9,4.2,4.2,5.9,4.2,8c0,2.1,1.7,3.8,3.8,3.8c2.1,0,3.8-1.7,3.8-3.8C11.8,5.9,10.1,4.2,8,4.2z M8,10.4
	c-1.3,0-2.4-1.1-2.4-2.4S6.7,5.6,8,5.6s2.4,1.1,2.4,2.4S9.3,10.4,8,10.4z M12.8,4.1c0,0.5-0.4,0.9-0.9,0.9C11.4,5,11,4.6,11,4.1
	s0.4-0.9,0.9-0.9C12.4,3.2,12.8,3.6,12.8,4.1z"/>
</svg>
